<svg width="26" height="26" viewBox="0 0 26 26" fill="none" xmlns="http://www.w3.org/2000/svg">
<g clip-path="url(#clip0_32_1368)">
<path fill-rule="evenodd" clip-rule="evenodd" d="M13 12.1875C11.6537 12.1875 10.5625 11.0963 10.5625 9.75C10.5625 8.40369 11.6537 7.3125 13 7.3125C14.3463 7.3125 15.4375 8.40369 15.4375 9.75C15.4375 11.0963 14.3463 12.1875 13 12.1875ZM13 5.6875C10.7567 5.6875 8.9375 7.50588 8.9375 9.75C8.9375 11.9941 10.7567 13.8125 13 13.8125C15.2433 13.8125 17.0625 11.9941 17.0625 9.75C17.0625 7.50588 15.2433 5.6875 13 5.6875ZM13 23.5625C11.6488 23.5698 4.875 13.1471 4.875 9.75C4.875 5.26338 8.51256 1.625 13 1.625C17.4874 1.625 21.125 5.26338 21.125 9.75C21.125 13.1016 14.3301 23.5698 13 23.5625ZM13 0C7.61556 0 3.25 4.36556 3.25 9.75C3.25 13.8271 11.3791 26.0089 13 26C14.5957 26.0089 22.75 13.7719 22.75 9.75C22.75 4.36556 18.3844 0 13 0Z" fill="#C1924A"/>
</g>
<defs>
<clipPath id="clip0_32_1368">
<rect width="26" height="26" fill="white"/>
</clipPath>
</defs>
</svg>
